<svg width="106" height="101" viewBox="0 0 106 101" fill="none" xmlns="http://www.w3.org/2000/svg">
<g clip-path="url(#clip0_4166_34506)">
<path d="M97.6633 92.5094H17.6528C13.1346 92.5094 9.48583 88.8381 9.47266 84.3085V17.6971C9.47266 13.1674 13.1346 9.5093 17.6528 9.49609H97.6633C102.181 9.49609 105.83 13.1674 105.83 17.6971V84.3085C105.83 88.8381 102.181 92.4962 97.6633 92.5094ZM17.6528 12.1637C14.5968 12.1637 12.1335 14.6333 12.1072 17.6971V84.3085C12.1072 87.3723 14.5968 89.855 17.6528 89.8682H97.6633C100.719 89.8682 103.196 87.3723 103.196 84.3085V17.6971C103.183 14.6465 100.706 12.1769 97.6633 12.1637H17.6528Z" fill="#B39164"/>
<path d="M104.51 27.1256H11.5907C10.8662 27.1256 10.2734 26.5313 10.2734 25.805C10.2734 25.0786 10.8662 24.4844 11.5907 24.4844H104.51C105.235 24.4844 105.828 25.0786 105.828 25.805C105.828 26.5313 105.235 27.1256 104.51 27.1256Z" fill="#B39164"/>
<path d="M104.684 27.1256H104.513C103.788 27.1256 103.195 26.5313 103.195 25.805C103.195 25.0786 103.788 24.4844 104.513 24.4844H104.684C105.408 24.4844 106.001 25.0786 106.001 25.805C106.001 26.5313 105.408 27.1256 104.684 27.1256Z" fill="#B39164"/>
<path d="M88.1775 100.999H8.16702C3.64881 100.999 0 97.3273 0 92.7977V26.1863C0 21.6698 3.66199 18.0117 8.16702 18.0117H10.8015C11.526 18.0117 12.1188 18.606 12.1188 19.3323V84.3062C12.1188 87.37 14.6084 89.8527 17.6645 89.8659H95.0272C95.7517 89.8659 96.3445 90.4602 96.3445 91.1865V92.7977C96.3445 97.3141 92.6825 100.985 88.1775 100.999ZM8.16702 20.6529C5.11097 20.6529 2.64769 23.1225 2.63452 26.1863V92.7977C2.63452 95.8615 5.11097 98.3442 8.16702 98.3574H88.1775C91.2335 98.3442 93.6968 95.8615 93.71 92.7977V92.5071H17.6513C13.1331 92.5071 9.48428 88.8359 9.47111 84.3062V20.6529H8.16702Z" fill="#B39164"/>
<path d="M10.7871 35.6022H2.10632C1.38183 35.6022 0.789062 35.0079 0.789062 34.2815C0.789062 33.5552 1.38183 32.9609 2.10632 32.9609H10.7871C11.5116 32.9609 12.1043 33.5552 12.1043 34.2815C12.1043 35.0079 11.5116 35.6022 10.7871 35.6022Z" fill="#B39164"/>
<path d="M83.5136 21.6579C82.7891 21.6579 82.1963 21.0637 82.1963 20.3373C82.1963 19.611 82.7891 19.0167 83.5136 19.0167C85.6607 18.8979 87.5839 17.6433 88.5587 15.7152C89.4149 14.2361 89.876 12.5458 89.876 10.829C89.876 6.3125 87.057 2.64121 83.5795 2.64121C80.1019 2.64121 77.283 6.3125 77.283 10.829C77.283 11.5553 76.6902 12.1496 75.9657 12.1496C75.2412 12.1496 74.6484 11.5553 74.6484 10.829C74.6484 4.85983 78.6002 0 83.5795 0C88.5587 0 92.3919 4.87304 92.3919 10.8422C92.4051 13.0212 91.8519 15.1606 90.7849 17.049C89.3622 19.7827 86.5828 21.5391 83.5136 21.6579Z" fill="#B39164"/>
<path d="M63.2402 21.6579C62.5157 21.6579 61.9229 21.0637 61.9229 20.3373C61.9229 19.611 62.5157 19.0167 63.2402 19.0167C65.3873 18.8979 67.3105 17.6433 68.2721 15.7152C69.1415 14.2361 69.5894 12.5458 69.5894 10.829C69.5894 6.3125 66.7704 2.64121 63.306 2.64121C59.8416 2.64121 57.0095 6.3125 57.0095 10.829C57.0095 11.5553 56.4168 12.1496 55.6923 12.1496C54.9678 12.1496 54.375 11.5553 54.375 10.829C54.375 4.85983 58.3268 0 63.306 0C68.2853 0 72.2239 4.85983 72.2239 10.829C72.2371 13.008 71.6838 15.1342 70.63 17.0358C69.181 19.8091 66.3621 21.5655 63.2402 21.6579Z" fill="#B39164"/>
<path d="M25.7675 21.6579C25.043 21.6579 24.4502 21.0637 24.4502 20.3373C24.4502 19.611 25.043 19.0167 25.7675 19.0167C27.9146 18.8979 29.8378 17.6433 30.8126 15.7152C31.6688 14.2361 32.1299 12.5458 32.1299 10.829C32.1299 6.3125 29.2978 2.64121 25.8334 2.64121C22.369 2.64121 19.5369 6.3125 19.5369 10.829C19.5369 11.5553 18.9441 12.1496 18.2196 12.1496C17.4951 12.1496 16.9023 11.5553 16.9023 10.829C16.9023 4.85983 20.8541 0 25.8334 0C30.8126 0 34.7644 4.85983 34.7644 10.829C34.7644 13.008 34.198 15.1606 33.1178 17.049C31.682 19.8091 28.8631 21.5655 25.7675 21.6579Z" fill="#B39164"/>
<path d="M45.1538 21.6565C44.4293 21.6565 43.8365 21.0622 43.8365 20.3359C43.8365 19.6095 44.4293 19.0152 45.1538 19.0152C47.3141 18.9096 49.2505 17.655 50.2384 15.7269C51.0946 14.2479 51.5557 12.5575 51.5557 10.8407C51.5557 6.32422 48.7236 2.65293 45.2592 2.65293C41.7948 2.65293 38.9626 6.32422 38.9626 10.8407C38.9626 11.567 38.3699 12.1613 37.6454 12.1613C36.9209 12.1613 36.3281 11.567 36.3281 10.8407C36.3281 4.87155 40.2799 0.0117188 45.2592 0.0117188C50.2384 0.0117188 54.1902 4.87155 54.1902 10.8407C54.2034 13.0197 53.6501 15.1591 52.5831 17.0475C51.1341 19.8208 48.2889 21.5904 45.1538 21.6565Z" fill="#B39164"/>
<path d="M58.0529 87.2241C57.6973 87.2241 57.3679 87.0921 57.1177 86.8412L49.2141 78.9175H38.3862C37.6617 78.9175 37.0689 78.3232 37.0689 77.5969V66.7415L28.9283 58.633C28.4145 58.118 28.4145 57.286 28.9283 56.771L37.0689 48.5568V37.6618C37.0689 36.9354 37.6617 36.3412 38.3862 36.3412H49.2536L57.1572 28.4175C57.6709 27.9025 58.5008 27.9025 59.0145 28.4175L66.9181 36.3412H78.3256C79.0501 36.3412 79.6428 36.9354 79.6428 37.6618V49.0982L87.1117 56.7181C87.6386 57.22 87.6649 58.0519 87.1644 58.5802C87.1512 58.5934 87.138 58.6066 87.1117 58.633L79.5111 66.2529V77.6894C79.5111 78.4157 78.9183 79.01 78.1938 79.01H66.839L58.9355 86.9336C58.6852 87.1317 58.3691 87.2373 58.0397 87.2241H58.0529ZM39.7035 76.3159H49.8069C50.1493 76.3159 50.4787 76.4612 50.7289 76.6989L58.0529 84.0415L65.3769 76.6989C65.6272 76.4612 65.9565 76.3159 66.299 76.3159H76.9424V65.6586C76.9424 65.3021 77.0742 64.9719 77.3244 64.721L84.385 57.6558L77.3244 50.5773C77.0742 50.3264 76.9424 49.9962 76.9424 49.6397V38.9824H66.3121C65.9565 38.9824 65.6272 38.8503 65.3769 38.5994L58.0529 31.2568L50.7289 38.5994C50.4787 38.8503 50.1493 38.9824 49.7937 38.9824H39.7035V49.0982C39.7035 49.4548 39.5717 49.7849 39.3215 50.0359L31.7209 57.6558L39.3215 65.236C39.5717 65.487 39.7035 65.8171 39.7035 66.1737V76.3159Z" fill="#B39164"/>
<path d="M57.8268 76.6354C57.5897 76.6354 57.3657 76.5693 57.1681 76.4505L42.2172 67.8005C41.8089 67.5628 41.5586 67.127 41.5586 66.6516V49.3912C41.5586 48.9158 41.8089 48.48 42.2172 48.2423L57.1681 39.5923C57.5765 39.3546 58.077 39.3546 58.4854 39.5923L73.4495 48.2423C73.8578 48.48 74.1081 48.9158 74.1081 49.3912V66.6516C74.1081 67.127 73.8578 67.5628 73.4495 67.8005L58.4854 76.4505C58.2878 76.5693 58.0639 76.6354 57.8268 76.6354ZM44.1931 65.8856L57.8268 73.8093L71.4736 65.8856V50.1044L57.8268 42.1807L44.1931 50.1044V65.8856Z" fill="#B39164"/>
<path d="M57.8278 59.3879C57.5907 59.3879 57.3668 59.3351 57.1692 59.2162L42.2182 50.5531C41.586 50.1965 41.3752 49.3909 41.7309 48.757C42.0865 48.1232 42.8901 47.8986 43.5223 48.2684L58.4732 56.9316C59.1055 57.2882 59.3163 58.0937 58.9606 58.7276C58.7235 59.137 58.2888 59.3879 57.8146 59.3879H57.8278Z" fill="#B39164"/>
<path d="M57.8281 63.918C57.591 63.918 57.367 63.8652 57.1694 63.7463L42.2185 55.136C41.5731 54.7926 41.3228 54.0002 41.6653 53.3531C42.0078 52.706 42.7981 52.4551 43.4436 52.7985C43.4699 52.8117 43.5094 52.8381 43.5358 52.8513L58.4867 61.5145C59.119 61.871 59.3297 62.6766 58.9741 63.3105C58.7238 63.7067 58.2891 63.9312 57.8281 63.918Z" fill="#B39164"/>
<path d="M57.829 76.6331C57.1045 76.6331 56.5117 76.0388 56.5117 75.3125V58.0654C56.5117 57.5899 56.762 57.1673 57.1703 56.9296L72.1344 48.2665C72.7667 47.9099 73.5702 48.1212 73.9259 48.7551C74.2816 49.389 74.0708 50.1813 73.4517 50.5511L59.1462 58.8313V75.3125C59.1462 76.0388 58.5535 76.6331 57.829 76.6331Z" fill="#B39164"/>
<path d="M57.8277 63.918C57.1032 63.918 56.5105 63.3105 56.5237 62.5842C56.5237 62.122 56.7739 61.6994 57.1691 61.4617L72.1332 52.7985C72.7787 52.4551 73.569 52.706 73.9115 53.3531C74.2276 53.9606 74.03 54.7134 73.4505 55.0831L58.4864 63.7991C58.2756 63.8916 58.0517 63.9312 57.8277 63.918Z" fill="#B39164"/>
<path d="M60.8563 74.7869C60.1318 74.7869 59.5391 74.1927 59.5391 73.4663V65.5427C59.5391 65.0805 59.7762 64.6447 60.1713 64.407L63.3196 62.5977C63.9387 62.2148 64.7554 62.4129 65.1242 63.0335C65.256 63.2448 65.3218 63.4826 65.3218 63.7335V71.6571C65.3218 72.3834 64.7291 72.9777 64.0046 72.9777C63.2801 72.9777 62.6873 72.3834 62.6873 71.6571V66.0313L62.1736 66.3483V73.4663C62.1736 74.1927 61.5808 74.7869 60.8563 74.7869Z" fill="#B39164"/>
</g>
<defs>
<clipPath id="clip0_4166_34506">
<rect width="106" height="101" fill="white"/>
</clipPath>
</defs>
</svg>
